<svg xmlns="http://www.w3.org/2000/svg" viewBox="0 0 417.94 414.63"><defs><style>.cls-1{fill:#37b34a;}.cls-2{fill:#31a444;}.cls-3{fill:#00873e;}.cls-4{fill:#009345;}.cls-5{fill:#007b38;}.cls-6{fill:#e12727;}.cls-7{fill:#e55d42;}.cls-8{fill:#c32120;}.cls-9{fill:#f27321;}.cls-10{fill:#dc691e;}.cls-11{fill:#f68f31;}.cls-12{fill:#c85f19;}.cls-13{fill:#005d26;}.cls-14{fill:#40a643;}.cls-15{fill:#007736;}.cls-16{fill:#00ad4d;}.cls-17{fill:#308037;}.cls-18{fill:#dccdb8;}.cls-19{fill:#3c9240;}.cls-20{fill:#6daf44;}.cls-21{fill:#ffecd2;}.cls-22{fill:#609e3e;}.cls-23{fill:#3c8235;}.cls-24{fill:#006129;}.cls-25{fill:#8bc762;}.cls-26{fill:#ff8400;}</style></defs><title>Logo</title><g id="Layer_1" data-name="Layer 1"><path class="cls-1" d="M214.23,343.89s6.47,5.24,7.52,12.24,0,11,0,11a12.41,12.41,0,0,0,6.65,1.57,13.43,13.43,0,0,0,7-1.75s-.87-3-.87-10.32,7.34-12.76,7.34-12.76l-3.23-2.71s-5,4.69-7.26,8.6V340H224.9v10.23c-2-5-6.82-8.74-6.82-8.74Z" transform="translate(-52.07 -96)"/><path class="cls-2" d="M231.37,349.78V340h-3.12l.81,5.85a10.54,10.54,0,0,0,.67,2.61A2.37,2.37,0,0,0,231.37,349.78Z" transform="translate(-52.07 -96)"/><path class="cls-2" d="M241.86,343.89l-3.23-2.71s-.58.55-1.43,1.41l1.54,1.3s-7.34,5.42-7.34,12.76c0,2.57.1,4.61.24,6.17a5.32,5.32,0,0,1-4.67,5.81l-.16,0c.49,0,1,.07,1.59.07a13.43,13.43,0,0,0,7-1.75s-.87-3-.87-10.32S241.86,343.89,241.86,343.89Z" transform="translate(-52.07 -96)"/><path class="cls-2" d="M218.08,341.53h0l-.62.38-1.22.75c1.29,1.21,3.89,2.86,5.53,5.27a5.81,5.81,0,0,0,3.13,2.34C222.89,345.29,218.08,341.53,218.08,341.53Z" transform="translate(-52.07 -96)"/><path class="cls-3" d="M211.43,348.92c-6.18.69-10.12-3.95-9.37-9.06-2.05-.28-7.07-4.12-5.72-10,1.14-4.95,6.61-6.84,10.64-5.95a9.65,9.65,0,0,1,16.37-8.08,11.86,11.86,0,0,1,21.92,4.6,7.54,7.54,0,1,1,8.69,12.3,8.06,8.06,0,0,1-2.82,15.06c-3.34.44-6.46-.75-7.92-3.79-1.73,1.45-4.74,1-6.75,0a6,6,0,0,1-3.16-5.57c-1.25,2.62-4.17,3.91-7.06,4.26s-4.39-.85-6.91-3.44C218.87,345.27,216.72,348.34,211.43,348.92Z" transform="translate(-52.07 -96)"/><circle class="cls-4" cx="163.06" cy="225.33" r="3.24"/><circle class="cls-4" cx="151.56" cy="236.37" r="3.24"/><circle class="cls-4" cx="158.92" cy="245.53" r="3.24"/><path class="cls-5" d="M254,332.76a7.54,7.54,0,1,0-8.69-12.3,11.86,11.86,0,0,0-21.92-4.6,9.92,9.92,0,0,0-8.24-2.65,8.5,8.5,0,0,1,6.92,8.55,7.68,7.68,0,0,1,6.38-1.41,5.75,5.75,0,0,1,4.08,5.13c2.37-.69,4.92-.26,6.42,2.08,1.25,2,.74,5.48-.28,7,2.06,1.45,2.32,5.42.7,7.35a5.31,5.31,0,0,1-3.31,1.89,4.21,4.21,0,0,0,.45.28c2,1,5,1.43,6.75,0,1.46,3,4.58,4.23,7.92,3.79A8.06,8.06,0,0,0,254,332.76Z" transform="translate(-52.07 -96)"/><path class="cls-6" d="M272.59,362.77a14.15,14.15,0,0,0-15.08-4.09,18.79,18.79,0,0,1-6.77,0,14.14,14.14,0,0,0-15.08,4.09c-4.3,4.92-5.63,11.51-4.72,17.71,1.17,7.89,5.58,13.3,13.74,15.73,4.56,1.35,6.31.63,9.44.63s4.89.72,9.45-.63c8.16-2.43,12.57-7.84,13.73-15.73C278.22,374.28,276.88,367.69,272.59,362.77Z" transform="translate(-52.07 -96)"/><circle class="cls-7" cx="190.44" cy="273.3" r="4.61"/><path class="cls-8" d="M272.59,362.77a14.15,14.15,0,0,0-15.08-4.09,18.79,18.79,0,0,1-6.77,0,12.65,12.65,0,0,0-5.35-.71c3,.64,3.08,4.41,12.4,3.72,8.67-.64,15.07,12.23,10.14,22.82-3.06,6.59-13.52,11-27.24,10.12a23.2,23.2,0,0,0,4,1.58c4.56,1.35,6.31.63,9.44.63s4.89.72,9.45-.63c8.16-2.43,12.57-7.84,13.73-15.73C278.22,374.28,276.88,367.69,272.59,362.77Z" transform="translate(-52.07 -96)"/><path class="cls-3" d="M254,356.7a6.22,6.22,0,0,0-5.31-3.71,6.68,6.68,0,0,1,2.31,3.88c-1.22-.69-4.51-1.19-6.32.1,2.4.27,3.74.81,5.14,2.42a4.4,4.4,0,0,0-1.19,1.91,10.6,10.6,0,0,0,.08,2.34c1.48-2.1,5-1,5.19-3.23,0,0,3.65.7,5,3.22.27-3.33-1.34-3.92-1.34-3.92,1.54-1.11,4.42-.32,6.07.19a6.3,6.3,0,0,0-5.57-2.64,5.19,5.19,0,0,1,4.17-2.62c-2.69-.92-6.51-.88-8.27,2.06Z" transform="translate(-52.07 -96)"/><path class="cls-5" d="M255.72,348c-2.91,2.3-2.59,7.89-2.25,10.57a.73.73,0,0,0,.76-.06,20.05,20.05,0,0,1,.73-5.83,5.79,5.79,0,0,1,2.24-3.17A1.37,1.37,0,0,0,255.72,348Z" transform="translate(-52.07 -96)"/><path class="cls-3" d="M259.07,315.37s-6.5,2-17.64,27.84c-.37.86-.87,2.85-1.06,3.51-.09.32,2,.72,2.11.41.67-1.69,6.55-17.59,10.89-24A84.4,84.4,0,0,1,259.07,315.37Z" transform="translate(-52.07 -96)"/><path class="cls-3" d="M252.53,324.33a20,20,0,0,0-1.4-9,28.11,28.11,0,0,1,.92,6.7,20,20,0,0,1-.36,2.91C251.89,324.76,252.35,324.55,252.53,324.33Z" transform="translate(-52.07 -96)"/><path class="cls-3" d="M254.45,323.34a10.54,10.54,0,0,0-3,2.59c0,.22-1.24,2.09-1.18,2.32.39-.53,2.17-2.71,2.69-3.18.68-.6,1.29-1.08,1.83-1.47A2.55,2.55,0,0,1,254.45,323.34Z" transform="translate(-52.07 -96)"/><path class="cls-2" d="M255.44,317.25a.89.89,0,0,0-1.3,0c.74-.7,2.23-2.48,1.3-2.6s-1.94,2.06-1.94,2.06a2.1,2.1,0,0,0-.26-2.44c-.33-.14-.52.48-.61,1.9s-.53,1.76-.53,1.76a4.29,4.29,0,0,1-.14-2.42c.3-1.4,1.21-3.33.46-3.5s-1.38,1.65-1.38,1.65c-.17-1.34-.73-4.12-1.73-3.31-.84.68.33,3,.7,3.71a3,3,0,0,0-1.71-1.27c-1.35-.38-1.38,1.05,0,1.42s2.67,3.5,2.67,3.5a1.87,1.87,0,0,1-1-.65c-.39-.52-.81-2.36-1.57-1.8s.67,2,.67,2-2.09-1.52-2.56-.59c-.32.64,1.23,1,2.21,1.18-1.34,0-1.57,1.11-.27.84a3.9,3.9,0,0,1,1.27,0,3.36,3.36,0,0,1,2.39,1.46h0a3.82,3.82,0,0,1,1.41-1.41C254.43,318.19,256.09,318,255.44,317.25Z" transform="translate(-52.07 -96)"/><path class="cls-2" d="M254.09,319.19c.31,0,.76.84.74,1.2.16-1,.83-2.68,1.46-2s-.63,2.75-.63,2.75a2.17,2.17,0,0,1,2.2-1.17c.3.18-.11.7-1.25,1.58s-1.21,1.57-1.21,1.57a5.62,5.62,0,0,0,2.14-1.4c1-1,2.12-2.88,2.69-2.37s-.61,2.07-.61,2.07c1.23-.63,3.89-1.75,3.78-.47-.1,1.08-2.73,1.45-3.52,1.54a3,3,0,0,1,2,.68c1.08.88-.11,1.72-1.22.77s-4.47-.2-4.47-.2a1.86,1.86,0,0,0,1.13.48c.67,0,2.46-.68,2.42.27s-2,.56-2,.56,2.47.84,2,1.76c-.36.63-1.55-.43-2.25-1.14.77,1.1-.05,1.92-.56.7a3.85,3.85,0,0,0-.68-1.06,3.67,3.67,0,0,0-2.69-1.15h0a3.25,3.25,0,0,0,.49-1.92C253.9,321.22,253.14,319.25,254.09,319.19Z" transform="translate(-52.07 -96)"/><path class="cls-2" d="M261.43,318.93c.12-.6-.58-.85-1-.95,1.2.19,4,.37,3.4-.38s-3.38-.37-3.38-.37c1.5-.2,2.18-1.12,2.07-1.44s-.85-.14-2.24.52a3.84,3.84,0,0,1-2.21.49,5.91,5.91,0,0,1,2.32-1.32c1.53-.5,4-.82,3.61-1.46s-2.58-.16-2.58-.16c1.12-.82,3.27-2.66,1.76-3-1.27-.27-2.56,1.79-2.92,2.42a2.06,2.06,0,0,0-.12-1.92c-.66-1.18-2-.47-1.28.76s-1.23,3.77-1.23,3.77a1.33,1.33,0,0,1-.19-1.09c.2-.57,1.59-1.82.49-2.1s-1.32,1.51-1.32,1.51-.17-2.32-1.39-2.19c-.84.09,0,1.43.58,2.24-1-1-2.23-.59-1,.23a4.29,4.29,0,0,1,1,.91,2.44,2.44,0,0,1,.45,2.51h0a6.23,6.23,0,0,1,2.38.31C259.79,318.67,261.25,319.77,261.43,318.93Z" transform="translate(-52.07 -96)"/><path class="cls-3" d="M241.8,320.33s2.95,6-.52,25.88a6.62,6.62,0,0,1-.34,1.37c-.08.28-2.31-.4-2.25-.69a135.7,135.7,0,0,0,3-18.05A49.61,49.61,0,0,0,241.8,320.33Z" transform="translate(-52.07 -96)"/><path class="cls-3" d="M242.24,332.21A13.6,13.6,0,0,1,247,326a21.29,21.29,0,0,0-3.16,4.75,31.57,31.57,0,0,0-1.29,3.15C242.49,333.66,242.3,332.47,242.24,332.21Z" transform="translate(-52.07 -96)"/><path class="cls-3" d="M239.73,330.54A8.66,8.66,0,0,1,242,334c-.07.18.13,2.17,0,2.34-.2-.59-1.16-3.84-2.77-5.38C239.39,330.91,239.64,330.57,239.73,330.54Z" transform="translate(-52.07 -96)"/><path class="cls-2" d="M243,325.18c.55-.14.84.38,1,.69-.27-.9-.66-3,.09-2.63s.61,2.57.61,2.57c.08-1.18.89-1.77,1.19-1.7s.2.63-.31,1.75-.32,1.6-.32,1.6a3.37,3.37,0,0,0,1.09-1.75c.35-1.21.46-3.14,1.09-2.88s.36,2,.36,2c.68-.92,2.24-2.72,2.66-1.59.35,1-1.48,2.1-2,2.43a2.28,2.28,0,0,1,1.8-.06c1.17.42.61,1.51-.61,1s-3.44,1.24-3.44,1.24a1.49,1.49,0,0,0,1,.06c.51-.19,1.58-1.36,1.93-.54s-1.32,1.13-1.32,1.13,2.2-.06,2.17.89c0,.65-1.34.12-2.14-.27,1,.7.72,1.66-.14.78a3.77,3.77,0,0,0-.94-.7,2.76,2.76,0,0,0-2.4-.15h0a4,4,0,0,0-.48-1.8C243.41,326.41,242.25,325.38,243,325.18Z" transform="translate(-52.07 -96)"/><path class="cls-2" d="M241,327.25c-.25-.14-.83.39-.9.7.1-.89,0-2.56-.73-2.25s-.13,2.53-.13,2.53c-.3-1.2-1.24-1.89-1.54-1.86s-.08.62.65,1.82A2.92,2.92,0,0,1,239,330a6.69,6.69,0,0,1-1.43-2c-.58-1.28-1.06-3.25-1.65-3.06s0,2,0,2c-.86-1-2.79-3-3-1.93-.18.93,1.91,2.31,2.54,2.71a2.52,2.52,0,0,0-1.85-.27c-1.11.28-.33,1.46.82,1.13s3.73,1.66,3.73,1.66a1.44,1.44,0,0,1-1-.07c-.55-.25-1.86-1.56-2.06-.76s1.55,1.29,1.55,1.29-2.24-.31-2,.66c.14.67,1.38.28,2.13,0-.9.59-.42,1.6.29.8a2.58,2.58,0,0,1,.82-.6,3,3,0,0,1,2.5.15h0a3.15,3.15,0,0,1,.05-1.79C240.7,329,241.8,327.69,241,327.25Z" transform="translate(-52.07 -96)"/><path class="cls-2" d="M238.42,321.54c.2-.5.82-.28,1.17-.11-1-.55-3-2-2.25-2.2s2.59,1.66,2.59,1.66c-1-1-1-2.05-.79-2.21s.68.38,1.35,1.64a3.85,3.85,0,0,0,1.34,1.6,5.91,5.91,0,0,0-1-2.25c-.85-1.23-2.48-2.86-1.88-3.09s1.92,1.34,1.92,1.34c-.41-1.21-1.07-3.75.16-3.12,1,.53,1,2.73.93,3.38a1.65,1.65,0,0,1,1-1.3c1-.47,1.67.8.55,1.27s-.91,3.38-.91,3.38a1,1,0,0,0,.65-.67c.13-.51-.27-2.19.66-1.77s.22,1.82.22,1.82,1.22-1.56,2-.78c.56.55-.67,1-1.48,1.27,1.2-.14,1.87.85.6.73a3.59,3.59,0,0,0-1.16.08,2,2,0,0,0-1.52,1.54h0a5.77,5.77,0,0,0-1.84-1.13C239.71,322.28,238.15,322.24,238.42,321.54Z" transform="translate(-52.07 -96)"/><path class="cls-3" d="M260,332.46s-6,.67-17.45,12.93c-.47.51-.11.88-.4,1.29-.14.2,1,.95,1.14.76.89-1,6-7.14,10.8-10.64Z" transform="translate(-52.07 -96)"/><path class="cls-3" d="M251.73,338.11a10.6,10.6,0,0,0,1.51-6.31,16.65,16.65,0,0,1-1.43,4.49,22.61,22.61,0,0,1-1.41,2.45C250.62,338.67,251.53,338.2,251.73,338.11Z" transform="translate(-52.07 -96)"/><path class="cls-3" d="M254.25,339a7.8,7.8,0,0,0-3.58.18c-.08.14-1.53,1-1.59,1.15.51-.16,3.23-1.14,5.16-.83C254.19,339.38,254.28,339,254.25,339Z" transform="translate(-52.07 -96)"/><path class="cls-2" d="M256,334.06c-.21-.44-.72-.38-1-.3.76-.27,2.41-1.07,1.72-1.38s-2.06.87-2.06.87c.75-.63.69-1.47.48-1.65s-.54.19-1,1.09-.89,1-.89,1a2.59,2.59,0,0,1,.56-1.6c.62-.84,1.86-1.88,1.33-2.18s-1.52.75-1.52.75c.24-.92.58-2.87-.41-2.59s-.59,2.05-.5,2.59a2,2,0,0,0-1-1.24c-.93-.58-1.35.35-.36.93s1.09,2.93,1.09,2.93a1.38,1.38,0,0,1-.63-.67c-.15-.44,0-1.74-.71-1.56s0,1.44,0,1.44-1.18-1.5-1.8-1c-.43.34.66,1,1.37,1.31-1-.33-1.52.35-.44.48a3.69,3.69,0,0,1,1,.29,2.51,2.51,0,0,1,1.44,1.53h0a3.34,3.34,0,0,1,1.47-.58C255,334.43,256.32,334.69,256,334.06Z" transform="translate(-52.07 -96)"/><path class="cls-2" d="M255.74,336.45c.23.1.2.75,0,.95.54-.52,1.75-1.26,1.92-.64s-1.63,1.36-1.63,1.36a2.23,2.23,0,0,1,2.11.1c.15.22-.37.37-1.58.47a2.57,2.57,0,0,0-1.56.48,6.2,6.2,0,0,0,2.17-.05c1.18-.25,2.77-.92,3-.42s-1.32,1-1.32,1c1.16.07,3.58.36,3,1.05s-2.61-.12-3.23-.35a2.35,2.35,0,0,1,1.21,1.11c.42.88-.8.95-1.22,0s-3.19-1.68-3.19-1.68a1.27,1.27,0,0,0,.62.67c.49.25,2.09.47,1.67,1s-1.74-.4-1.74-.4,1.46,1.36.7,1.7c-.53.24-1-.79-1.18-1.44.11.89-.84,1.08-.7.2a2,2,0,0,0,0-.85,2.71,2.71,0,0,0-1.49-1.6h0a2.52,2.52,0,0,0,1.17-.94C254.75,337.55,255,336.14,255.74,336.45Z" transform="translate(-52.07 -96)"/><path class="cls-2" d="M261,335.34c.22-.38-.27-.69-.58-.84.89.36,3,1,2.72.41s-2.55-.91-2.55-.91c1.22.15,1.94-.34,1.92-.57s-.63-.27-1.85-.09a3.59,3.59,0,0,1-1.82-.1,5.08,5.08,0,0,1,2.08-.44c1.3,0,3.3.23,3.13-.28s-2-.62-2-.62c1.05-.34,3.12-1.16,2-1.67-.94-.44-2.38.71-2.8,1.06a1.28,1.28,0,0,0,.32-1.32c-.26-.93-1.47-.72-1.16.26s-1.76,2.31-1.76,2.31a.82.82,0,0,1,.08-.78c.27-.34,1.63-.91.83-1.32s-1.35.76-1.35.76.37-1.6-.61-1.75c-.68-.11-.31,1,0,1.63-.57-.88-1.61-.84-.82,0a3.23,3.23,0,0,1,.59.82,1.56,1.56,0,0,1-.19,1.79h0a5.37,5.37,0,0,1,1.79.68C259.82,334.84,260.72,335.88,261,335.34Z" transform="translate(-52.07 -96)"/><path class="cls-9" d="M228,351c-3.64,6.39-5.66,13.23-7.51,20.32-1.82,6.94-4,19.5-1.65,20.59S232,382.55,233.28,381c4.37-5.44,10.62-13.86,13.7-21.05,2.11-4.9,2.16-10.91-5-14.34C236,342.66,230.77,346.05,228,351Z" transform="translate(-52.07 -96)"/><path class="cls-10" d="M242,345.58a9.86,9.86,0,0,0-5.27-1c6.67,4.27,6.91,7.39,2.05,19-3,7.05-19,30.51-21,24.91,0,1.84.33,3.14,1,3.46C221.23,393,232,382.55,233.28,381c4.37-5.44,10.62-13.86,13.7-21.05C249.09,355,249.14,349,242,345.58Z" transform="translate(-52.07 -96)"/><path class="cls-11" d="M236.43,349.36c-4.62-2.75-8.45,3.94-4,6.48C236.47,358.14,241,352.08,236.43,349.36Z" transform="translate(-52.07 -96)"/><path class="cls-10" d="M231.58,349.85c.89.62,1.79,1.23,2.71,1.81.47.29.93.58,1.41.85s1,.53,1.43.79c-1.64-1.4-3.24-2.78-4.83-4.18l-1.74-1.54c-.29.29-.58.59-.84.9C230.33,348.94,231,349.4,231.58,349.85Z" transform="translate(-52.07 -96)"/><path class="cls-12" d="M243.55,360.69c.9.29,1.81.54,2.72.78.2-.4.38-.8.56-1.2l-.4-.06c-.9-.15-1.8-.33-2.71-.5-1.82-.35-3.65-.74-5.51-1C240,359.43,241.74,360.11,243.55,360.69Z" transform="translate(-52.07 -96)"/><path class="cls-12" d="M239.61,368.2c-1.94-.37-3.89-.81-5.87-1.15a55.22,55.22,0,0,0,5.7,2.17c.67.21,1.35.41,2,.59.25-.38.5-.76.74-1.14C241.34,368.52,240.48,368.37,239.61,368.2Z" transform="translate(-52.07 -96)"/><path class="cls-10" d="M225.57,355.9c.74.59,1.49,1.19,2.27,1.75s1.57,1.12,2.38,1.64c.4.26.82.51,1.24.76s.84.46,1.27.7c-1.43-1.26-2.81-2.51-4.17-3.78-.67-.64-1.36-1.27-2-1.91l-.45-.44c-.19.41-.39.82-.57,1.24Z" transform="translate(-52.07 -96)"/><path class="cls-12" d="M235.21,376.39c-1.08-.2-2.16-.44-3.24-.68s-2.17-.52-3.27-.8a31.37,31.37,0,0,0,3.12,1.42c1.06.43,2.14.79,3.23,1.13l.81.22.79-1Z" transform="translate(-52.07 -96)"/><path class="cls-10" d="M223.64,366.06c.83.58,1.66,1.15,2.55,1.65a28.53,28.53,0,0,0,2.69,1.39c-.79-.61-1.57-1.22-2.32-1.84s-1.49-1.26-2.2-1.9-1.18-1.12-1.74-1.7c-.14.43-.26.86-.39,1.29C222.69,365.33,223.15,365.71,223.64,366.06Z" transform="translate(-52.07 -96)"/><path class="cls-10" d="M219.94,375.05c.61.35,1.23.69,1.85,1s1.27.62,1.9.91,1.29.54,1.94.79l-.85-.6c-.28-.19-.58-.37-.86-.58-.55-.39-1.12-.76-1.66-1.16s-1.1-.78-1.63-1.19c-.26-.18-.51-.37-.76-.56-.08.38-.17.77-.26,1.17Z" transform="translate(-52.07 -96)"/><path class="cls-10" d="M218.62,384.61l-.57-.47c0,.35-.07.7-.1,1,1.15.63,2.33,1.23,3.53,1.75Z" transform="translate(-52.07 -96)"/><path class="cls-12" d="M227.05,383.7c-1-.27-2-.54-3.07-.79,1,.51,1.94,1,2.94,1.42.69.31,1.4.6,2.1.87l.84-.77Z" transform="translate(-52.07 -96)"/><path class="cls-5" d="M280.52,373.62a15.93,15.93,0,0,1-3.59,3.2,41.94,41.94,0,0,0-5.9,4.66c-.41.44.54-7.18,1.58-10.87.71-2.54,2.67-6.4,6-7.62,1.56-.57,3-.84,4-.27C284,363.42,284.73,368.42,280.52,373.62Z" transform="translate(-52.07 -96)"/><path class="cls-13" d="M280.43,366.16a74.42,74.42,0,0,0-8.33,12.2c-4.27,8.08-4.46,10.05-4.67,11.79a8.42,8.42,0,0,0,1.24,2.49,34.86,34.86,0,0,1,4.39-14.51C276.26,372.21,280.43,366.16,280.43,366.16Z" transform="translate(-52.07 -96)"/><path class="cls-5" d="M269.47,358.71a14.17,14.17,0,0,1,.39,6.44c-1,6.27-3.69,9.19-4.27,11.87-.09.45.05.67-.33.67s-.27-.49-.31-.76c-.2-1.65-3.21-7.1-3.75-11.27a13.85,13.85,0,0,1,.57-7c.67-1.7,2.41-4.59,4.28-4.59S269.24,358,269.47,358.71Z" transform="translate(-52.07 -96)"/><path class="cls-13" d="M263.21,361.2c.43.4.84.83,1.24,1.26s.79.87,1.17,1.32l0,0v.05c0,.52,0,1,0,1.54l-.19-.11,1.38-.87,1.4-.83c-.43.33-.87.65-1.31,1l-1.33.95-.19.13v-.24c0-.51,0-1-.05-1.53l0,.1c-.38-.45-.76-.9-1.13-1.36S263.55,361.69,263.21,361.2Z" transform="translate(-52.07 -96)"/><path class="cls-13" d="M262.68,364.34c.51.43,1,.89,1.47,1.35s1,.93,1.41,1.41l.05,0v.07c0,.4,0,.81-.06,1.21l-.19-.11c.45-.3.92-.58,1.38-.87s.93-.57,1.4-.84c-.43.34-.87.66-1.31,1l-1.34.95-.19.13v-.25c0-.4,0-.81,0-1.21l.05.11c-.46-.48-.92-1-1.37-1.46S263.1,364.86,262.68,364.34Z" transform="translate(-52.07 -96)"/><path class="cls-13" d="M262.88,368.37a25.06,25.06,0,0,1,2.56,2.26l.06.06v.09c0,.51,0,1-.08,1.52l-.28-.13,1-.85c.16-.14.34-.27.51-.4l.51-.4c-.14.17-.28.33-.43.49l-.45.48c-.3.32-.6.63-.91.94l-.29.28v-.42c0-.51,0-1,0-1.52l.05.15A27.75,27.75,0,0,1,262.88,368.37Z" transform="translate(-52.07 -96)"/><polygon class="cls-13" points="213.41 266.43 215.76 264.34 213.6 266.64 213.41 266.43"/><path class="cls-13" d="M276.27,366.91c.21.6.4,1.2.58,1.8s.34,1.2.5,1.81l0,.06,0,.05c-.22.4-.43.8-.66,1.19l-.13-.19,1.94-.34c.65-.11,1.29-.21,1.94-.3l-1.91.47-1.92.43-.26.06.12-.25c.2-.41.42-.81.63-1.22l0,.12c-.15-.61-.31-1.22-.44-1.83S276.37,367.54,276.27,366.91Z" transform="translate(-52.07 -96)"/><path class="cls-13" d="M274.31,369.23c.26.62.5,1.25.74,1.88s.45,1.27.66,1.91l0,.06,0,.06c-.18.36-.37.71-.57,1.06L275,374l1.61-.15,1.61-.11-1.59.28-1.6.24-.24,0,.11-.22c.17-.36.36-.72.54-1.08v.12c-.21-.64-.42-1.28-.6-1.93S274.46,369.89,274.31,369.23Z" transform="translate(-52.07 -96)"/><path class="cls-13" d="M272.58,372.88a26.31,26.31,0,0,1,1.33,3.2l0,.08,0,.08c-.23.45-.47.89-.72,1.33l-.19-.25,1.25-.31.63-.13.64-.12q-.3.14-.6.24l-.61.23c-.4.15-.81.29-1.22.42l-.37.13.18-.38c.21-.45.44-.9.67-1.35v.16A27,27,0,0,1,272.58,372.88Z" transform="translate(-52.07 -96)"/><polygon class="cls-13" points="226.18 273.03 229.18 272.23 226.26 273.32 226.18 273.03"/><path class="cls-13" d="M265.79,357s-.93,15.07-.93,22.94c0,4.83.1,11.95.83,13.63.2.45,1.9.9,1.91.39l-.14-4.11a.45.45,0,0,0,0-.23c-.31-.62-1.81-4.07-1.83-10.42S265.79,357.12,265.79,357Z" transform="translate(-52.07 -96)"/><path class="cls-14" d="M284.18,379.8a12.65,12.65,0,0,1-6.3,4c-4.08,1.07-5.37,2.67-5.37,2.67-.25-.19-.24-1-.4-.76a17.24,17.24,0,0,0,1.77-4.42c.53-2.42.95-5.6,5.56-8.92.75-.54,5.16-2.66,6.66-.7S285.76,377.7,284.18,379.8Z" transform="translate(-52.07 -96)"/><path class="cls-14" d="M254.39,364.52a15.72,15.72,0,0,0,3.28,9.49,49.63,49.63,0,0,0,4.94,5c.26.51,1.45-4.09,1.16-10.44a12.57,12.57,0,0,0-2.48-7.26c-.61-.8-2.84-3.4-4.77-2.64S254.39,363.64,254.39,364.52Z" transform="translate(-52.07 -96)"/><path class="cls-15" d="M257.22,362a90.17,90.17,0,0,1,5.62,15.82c2,8.95,3.07,13.37,2.81,15.1-.07.48-1.23.27-1.43-.4A109.64,109.64,0,0,0,262,377.32,154.05,154.05,0,0,0,257.22,362Z" transform="translate(-52.07 -96)"/><path class="cls-16" d="M251.07,379.8a11.85,11.85,0,0,0,4.77,4.68,33.48,33.48,0,0,0,5,2.2c.28-.12.68.07.57-.18a16.38,16.38,0,0,0-1.2-6.78,19.2,19.2,0,0,0-3.55-5.69c-2.7-2.61-5.44-2.81-6.44-1.77C248.85,373.75,249.81,377.41,251.07,379.8Z" transform="translate(-52.07 -96)"/><path class="cls-16" d="M270.84,360.26a14.35,14.35,0,0,0-3,5.9c-1.33,6.32.52,10,.27,12.81-.06.63.51,2.15.72,1,.58-3.05,3.1-4.88,4.31-5.95a12.6,12.6,0,0,0,4.12-7.17c1.1-5.57-.61-8.49-1.74-8.91C274,357.42,271.7,359.22,270.84,360.26Z" transform="translate(-52.07 -96)"/><path class="cls-15" d="M267.73,382.09c.54-8.32,6-20.53,6-20.53s-4.87,12-5.18,22.56c-.26,9,.54,7.63.13,9.17-.49,1.86-3.23-.05-3.23-.05s.12-3.11.14-2.49c.1,2.16,1.43,3.64,1.69,0C267.47,387.48,267.61,384.05,267.73,382.09Z" transform="translate(-52.07 -96)"/><path class="cls-15" d="M273.28,384.37a24.35,24.35,0,0,0-4.9,7.74l-1.29,1.34-1.65-.91-.34-.32c-.49-1.44-1.94-3.57-4.21-6.93a73.69,73.69,0,0,0-9-10.61,91.55,91.55,0,0,1,8.05,10.44c3.8,5.95,4.2,7.17,4.49,9.72.43,3.67,4.68,3.38,5-.15.23-2.57.86-5.88,4.84-10.32,4.47-5,9.92-9.85,9.92-9.85A77.18,77.18,0,0,0,273.28,384.37Z" transform="translate(-52.07 -96)"/><path class="cls-15" d="M256.11,365.41c.55.21,1.08.45,1.6.7s1.05.5,1.57.76l.05,0,0,.05c.19.47.38.94.56,1.42l-.22,0,1-1.34c.33-.44.66-.88,1-1.31-.28.47-.57.94-.86,1.41l-.9,1.39-.12.19-.1-.21-.6-1.4.07.07c-.51-.27-1-.54-1.53-.83S256.6,365.73,256.11,365.41Z" transform="translate(-52.07 -96)"/><path class="cls-15" d="M256.74,368.42c.62.2,1.24.44,1.85.68s1.21.5,1.81.77l.06,0,0,.06c.13.39.26.77.38,1.15l-.22,0,1-1.34c.33-.44.66-.88,1-1.31q-.42.7-.87,1.41c-.3.46-.59.93-.9,1.39l-.13.2-.09-.23c-.14-.37-.28-.76-.41-1.14l.08.09c-.6-.27-1.2-.53-1.79-.82S257.32,368.74,256.74,368.42Z" transform="translate(-52.07 -96)"/><path class="cls-15" d="M258,371.64a25.06,25.06,0,0,1,3.19,1.11l.08,0,0,.08c.16.48.33,1,.47,1.44l-.3,0c.2-.39.4-.78.61-1.16l.33-.58c.11-.19.22-.38.34-.57-.07.21-.15.42-.23.63s-.15.41-.24.62c-.16.41-.34.81-.51,1.22l-.16.36-.15-.38c-.18-.47-.35-.95-.52-1.42l.11.11A23.8,23.8,0,0,1,258,371.64Z" transform="translate(-52.07 -96)"/><path class="cls-15" d="M270.59,362.75c.48,1.1,1,2.2,1.43,3.31v.07c-.11.46-.22.92-.34,1.37l-.2-.19c.71-.26,1.43-.5,2.14-.74s1.44-.48,2.16-.69v0c-.69.31-1.39.6-2.09.88s-1.41.56-2.11.82l-.28.1.08-.29c.13-.45.27-.9.41-1.35v.08c-.42-1.13-.83-2.25-1.24-3.39Z" transform="translate(-52.07 -96)"/><path class="cls-15" d="M269.11,365.61c.66,1.17,1.31,2.34,2,3.51l0,0,0,.06c-.11.39-.22.78-.34,1.16l-.18-.2c.62-.15,1.24-.27,1.86-.4s1.25-.25,1.88-.34v0c-.61.19-1.22.37-1.84.54s-1.22.33-1.84.47l-.27.07.09-.27c.13-.38.27-.76.41-1.14v.1c-.6-1.2-1.2-2.41-1.79-3.62Z" transform="translate(-52.07 -96)"/><path class="cls-15" d="M268.31,369.44c.61,1,1.2,2,1.79,3l0,.06,0,.07c-.14.49-.28,1-.43,1.46l-.26-.26c.48-.19,1-.38,1.46-.54s1-.32,1.48-.45l0,0c-.46.26-.92.49-1.39.72s-.95.42-1.43.62l-.4.17.14-.43c.16-.48.34-1,.51-1.42l0,.13c-.53-1-1.05-2.06-1.55-3.1Z" transform="translate(-52.07 -96)"/><polygon class="cls-15" points="206.52 269.83 207.95 266.99 206.78 269.96 206.52 269.83"/><path class="cls-15" d="M251.27,377.38c.58,0,1.15.05,1.73.1s1.15.12,1.72.19h.06l0,0c.33.38.67.76,1,1.15l-.21.05c.15-.54.32-1.07.48-1.6s.34-1.06.52-1.59c-.11.55-.24,1.1-.36,1.64s-.26,1.08-.4,1.62l-.06.22-.16-.17-1-1.11.09,0c-.57-.07-1.15-.15-1.72-.25S251.83,377.51,251.27,377.38Z" transform="translate(-52.07 -96)"/><path class="cls-15" d="M252.82,380c.66,0,1.31,0,2,0s1.31.05,2,.09h.07l0,.05c.25.31.5.63.73.95l-.22.05c.16-.54.33-1.07.49-1.6s.34-1.06.52-1.58c-.12.54-.24,1.09-.37,1.63l-.39,1.62-.06.24-.16-.19-.76-.93.1,0c-.65,0-1.3-.09-2-.16S253.47,380.1,252.82,380Z" transform="translate(-52.07 -96)"/><path class="cls-15" d="M255.08,382.59a23.72,23.72,0,0,1,3.37,0h.09l0,.07c.31.4.62.79.91,1.2l-.29.09c.06-.44.13-.88.2-1.32,0-.22.09-.43.13-.65s.08-.44.13-.66c0,.23,0,.45,0,.67s0,.45,0,.67c0,.44-.05.89-.09,1.33l0,.4-.27-.31c-.32-.38-.63-.77-.95-1.16l.15.07A25.53,25.53,0,0,1,255.08,382.59Z" transform="translate(-52.07 -96)"/><polygon class="cls-15" points="201.67 280.92 202.11 277.75 201.96 280.95 201.67 280.92"/><path class="cls-15" d="M281.26,373.57c0,.6,0,1.2,0,1.8s-.05,1.19-.09,1.79v0l0,0c-.35.36-.7.73-1.05,1.08l-.06-.22,1.56.42,1.56.46-1.59-.29-1.59-.33-.21-.05.15-.17,1-1.11,0,.1c.05-.6.09-1.2.16-1.79S281.16,374.16,281.26,373.57Z" transform="translate(-52.07 -96)"/><path class="cls-15" d="M278.82,375.31c.05.68.07,1.35.08,2s0,1.35,0,2v.06l0,.05-.89.8-.05-.22,1.56.42,1.56.45-1.59-.29-1.59-.33-.23-.05.17-.17c.29-.29.57-.56.86-.83l0,.11c0-.68,0-1.36.05-2S278.75,376,278.82,375.31Z" transform="translate(-52.07 -96)"/><path class="cls-15" d="M276.43,377.78a29.75,29.75,0,0,1,.29,3.64v.09l-.06.06c-.34.34-.68.68-1,1l-.13-.29c.57,0,1.14-.06,1.7-.07l.86,0h.85l-.84.13-.85.11c-.56.07-1.13.14-1.7.19l-.44.05.31-.34c.33-.36.66-.71,1-1.06l-.06.15A31.84,31.84,0,0,1,276.43,377.78Z" transform="translate(-52.07 -96)"/><polygon class="cls-15" points="229.58 280.5 232.85 280.39 229.6 280.79 229.58 280.5"/><path class="cls-17" d="M297.81,358.15c0-.26,1.39-.72,1.69.66a2.2,2.2,0,0,1-.37,1.61,2.58,2.58,0,0,1,1.44,1.84,2.7,2.7,0,0,1-.66,2.29,2.46,2.46,0,0,1,.91,2,2.52,2.52,0,0,1-1.07,2c.54.35.93,2-.76,2.93,0,0,1.8,1.86-.61,4.3a10.07,10.07,0,0,0-2.37,3.4c-.3.56-.5.86-1,.88a1,1,0,0,1-.86-.64A7.13,7.13,0,0,0,292,376.7a6.29,6.29,0,0,1-1.7-2,2.18,2.18,0,0,1,.55-2.56,2,2,0,0,1-1.69-1.29,1.54,1.54,0,0,1,.45-1.82,2.71,2.71,0,0,1-1.61-2.83,2.64,2.64,0,0,1,1.52-1.84,2.25,2.25,0,0,1-1-1.86,2.19,2.19,0,0,1,2.05-2.12,1.79,1.79,0,0,1-.51-2.12,1.75,1.75,0,0,1,1.95-.86s.21-3.22,2.69-3.36C296.69,353.9,297.72,355.59,297.81,358.15Z" transform="translate(-52.07 -96)"/><path class="cls-18" d="M294.83,358.9s-.78,16.48-.66,21.13c.15,5.58.58,11.12.58,11.12l2.78,2.38v-3.25s-1.35-8.74-1.85-14.83C295.31,370.89,294.83,358.9,294.83,358.9Z" transform="translate(-52.07 -96)"/><polygon class="cls-18" points="240.08 265.2 242.45 268.26 242.45 268.26 242.71 268.51 242.89 268.24 244.84 265.25 242.44 267.89 242.88 267.87 242.88 267.87 240.08 265.2"/><path class="cls-18" d="M291.18,364.78c.25.3.53.59.8.87s.55.56.84.83c.57.55,1.15,1.07,1.75,1.58l.21.18.19-.2.76-.84c.25-.29.51-.57.75-.86s.48-.59.72-.88.46-.61.68-.92c-.3.23-.59.48-.88.73s-.57.5-.84.77-.55.52-.82.79l-.79.81.4,0c-.6-.51-1.21-1-1.83-1.49-.31-.24-.63-.47-.95-.7S291.52,365,291.18,364.78Z" transform="translate(-52.07 -96)"/><path class="cls-18" d="M291.3,369.17c.26.24.53.46.8.68s.55.42.84.62.56.4.85.6.58.38.87.57l.18.13.17-.16c.53-.52,1.05-1,1.55-1.58.25-.27.5-.55.74-.83s.48-.57.7-.88c-.32.21-.61.44-.9.67l-.86.71c-.56.48-1.1,1-1.63,1.49l.35,0c-.29-.18-.58-.37-.88-.54s-.6-.36-.91-.52-.61-.33-.92-.49Z" transform="translate(-52.07 -96)"/><path class="cls-18" d="M291.88,372.76c.21.24.44.47.66.69s.45.44.69.65l.71.62c.23.21.48.41.72.61l.19.15.19-.17c.24-.22.46-.45.69-.67s.45-.46.66-.69.43-.48.64-.73.41-.5.59-.77c-.28.17-.54.37-.8.56s-.5.39-.75.6-.49.41-.73.63-.47.43-.7.66l.38,0-.75-.57c-.26-.19-.51-.37-.78-.55s-.52-.35-.79-.52S292.16,372.91,291.88,372.76Z" transform="translate(-52.07 -96)"/><path class="cls-19" d="M296,358.93c0-.27-1.46-.71-1.73.73a2.18,2.18,0,0,0,.43,1.66,2.65,2.65,0,0,0-1.44,1.95,2.83,2.83,0,0,0,.74,2.37,2.58,2.58,0,0,0-.89,2.11,2.67,2.67,0,0,0,1.17,2c-.55.37-.9,2.08.88,3,0,0-1.81,2,.76,4.44a10.68,10.68,0,0,1,2.56,3.46c.33.57.54.87,1.09.88a1,1,0,0,0,.88-.69,7.43,7.43,0,0,1,2.11-2.85,6.41,6.41,0,0,0,1.71-2.17,2.23,2.23,0,0,0-.64-2.63,2.15,2.15,0,0,0,1.72-1.4,1.59,1.59,0,0,0-.52-1.87,2.82,2.82,0,0,0,1.58-3,2.76,2.76,0,0,0-1.62-1.86,2.37,2.37,0,0,0,1-2,2.28,2.28,0,0,0-2.19-2.14,1.87,1.87,0,0,0,.46-2.22,1.81,1.81,0,0,0-2.05-.83s-.3-3.34-2.88-3.4C297,354.48,296,356.26,296,358.93Z" transform="translate(-52.07 -96)"/><path class="cls-18" d="M299.12,359.62s1.88,17.75,1.44,22.56A103.11,103.11,0,0,1,298.3,395L297,396.74l-.61-4.85a110.14,110.14,0,0,0,2.34-15.07C299,372.08,299.12,359.62,299.12,359.62Z" transform="translate(-52.07 -96)"/><polygon class="cls-18" points="249.9 265.93 247.54 269.17 247.53 269.17 247.27 269.44 247.07 269.17 244.96 266.12 247.54 268.79 247.08 268.78 247.08 268.78 249.9 265.93"/><path class="cls-18" d="M303.08,365.61c-.25.33-.53.63-.8.93s-.56.6-.85.89c-.57.58-1.17,1.14-1.77,1.69l-.22.19-.19-.2c-.28-.29-.56-.56-.82-.85s-.54-.57-.8-.87-.52-.6-.78-.9-.5-.61-.73-.93c.32.23.63.48.94.73l.89.77c.3.26.58.54.87.8s.56.55.85.83h-.41c.6-.55,1.22-1.09,1.85-1.6l1-.76C302.41,366.08,302.73,365.83,303.08,365.61Z" transform="translate(-52.07 -96)"/><path class="cls-18" d="M303.09,370.18c-.27.25-.54.49-.82.72s-.56.46-.85.67-.57.44-.86.65l-.89.62-.19.13-.17-.16c-.57-.51-1.13-1-1.66-1.59l-.79-.84c-.26-.29-.51-.58-.75-.89.33.21.64.44.95.67s.61.46.91.71c.6.48,1.17,1,1.74,1.5l-.37,0,.91-.58c.3-.19.61-.39.92-.57l.94-.53C302.43,370.49,302.75,370.33,303.09,370.18Z" transform="translate(-52.07 -96)"/><path class="cls-18" d="M302.59,373.92c-.22.26-.44.5-.67.73s-.45.47-.69.7l-.72.67c-.24.22-.49.43-.74.64l-.19.16-.2-.17c-.25-.21-.49-.44-.73-.67s-.48-.46-.71-.7-.46-.48-.68-.73-.44-.51-.64-.78c.29.17.57.36.84.55s.54.39.8.6l.78.63c.24.22.5.44.74.67h-.39c.26-.21.51-.42.77-.61s.51-.4.78-.59.53-.38.81-.57S302.3,374.08,302.59,373.92Z" transform="translate(-52.07 -96)"/><path class="cls-20" d="M292.78,364.8c0-.26,1.36-.88,1.81.51a2.21,2.21,0,0,1-.22,1.7,2.66,2.66,0,0,1,1.68,1.76,2.81,2.81,0,0,1-.45,2.44,2.57,2.57,0,0,1,1.15,2,2.62,2.62,0,0,1-.91,2.13c.59.3,1.16,1.95-.49,3.1,0,0,2,1.74-.2,4.51a10.68,10.68,0,0,0-2.1,3.75c-.26.61-.43.94-1,1a1,1,0,0,1-.95-.57,7.39,7.39,0,0,0-2.46-2.57,6.33,6.33,0,0,1-2-1.93,2.26,2.26,0,0,1,.3-2.7,2.11,2.11,0,0,1-1.87-1.16,1.56,1.56,0,0,1,.28-1.92,2.84,2.84,0,0,1-2-2.77,2.72,2.72,0,0,1,1.38-2.05,2.36,2.36,0,0,1-1.24-1.82,2.29,2.29,0,0,1,1.9-2.4,1.85,1.85,0,0,1-.73-2.14,1.78,1.78,0,0,1,1.92-1.08s-.11-3.36,2.44-3.74C291.2,360.52,292.43,362.16,292.78,364.8Z" transform="translate(-52.07 -96)"/><path class="cls-21" d="M289.78,365.88s.37,17.85,1.4,22.56a18.05,18.05,0,0,0,5.21,9h.73v-4.89a18.64,18.64,0,0,1-4.78-9.68C291.49,378.22,289.78,365.88,289.78,365.88Z" transform="translate(-52.07 -96)"/><polygon class="cls-21" points="235.18 272.52 238.38 274.95 238.38 274.95 237.82 275.03 240.1 272.1 238.44 275.42 238.26 275.78 237.89 275.5 237.88 275.49 235.18 272.52"/><path class="cls-21" d="M286.6,372.32c.38.16.75.36,1.11.55s.72.4,1.06.61c.7.42,1.38.88,2.05,1.34l-.5.08c.25-.31.49-.62.75-.92s.5-.6.77-.89.53-.59.8-.87.56-.56.86-.83c-.18.36-.38.7-.58,1s-.42.67-.64,1-.45.65-.68,1-.47.63-.7,1l-.21.27-.29-.2c-.67-.47-1.32-.95-2-1.46l-.94-.79C287.19,372.89,286.89,372.62,286.6,372.32Z" transform="translate(-52.07 -96)"/><path class="cls-21" d="M287.17,376.85c.36.09.7.21,1,.33l1,.39,1,.43,1,.47-.44.09c.24-.29.5-.58.75-.87s.52-.56.79-.83.55-.55.83-.81.57-.52.89-.76c-.19.35-.4.67-.61,1s-.43.64-.66.94-.47.61-.7.92-.49.59-.74.88l-.18.22-.26-.13c-.32-.16-.64-.33-.95-.51s-.63-.35-.94-.54-.61-.38-.91-.58S287.46,377.08,287.17,376.85Z" transform="translate(-52.07 -96)"/><path class="cls-21" d="M288.14,380.5c.31.11.61.25.91.39s.6.28.88.44.58.31.86.48l.84.5-.47.07c.42-.51.88-1,1.35-1.47.24-.23.48-.46.73-.68a8.21,8.21,0,0,1,.8-.63,9.59,9.59,0,0,1-.51.88c-.18.28-.37.55-.57.82-.4.54-.81,1.06-1.25,1.56l-.21.23-.26-.17c-.28-.18-.55-.36-.81-.55l-.79-.58-.77-.62A9.19,9.19,0,0,1,288.14,380.5Z" transform="translate(-52.07 -96)"/><path class="cls-22" d="M301.47,364.8c0-.26-1.37-.88-1.82.51a2.3,2.3,0,0,0,.22,1.7,2.65,2.65,0,0,0-1.67,1.76,2.83,2.83,0,0,0,.44,2.44,2.53,2.53,0,0,0-1.14,2,2.64,2.64,0,0,0,.9,2.13c-.59.3-1.15,1.95.49,3.1,0,0-2,1.74.21,4.51a10.68,10.68,0,0,1,2.1,3.75c.25.61.43.94,1,1a1,1,0,0,0,1-.57,7.35,7.35,0,0,1,2.45-2.57,6.37,6.37,0,0,0,2-1.93,2.26,2.26,0,0,0-.31-2.7,2.12,2.12,0,0,0,1.88-1.16,1.59,1.59,0,0,0-.28-1.92,2.84,2.84,0,0,0,2-2.77,2.77,2.77,0,0,0-1.38-2.05,2.38,2.38,0,0,0,1.24-1.82,2.29,2.29,0,0,0-1.91-2.4,1.86,1.86,0,0,0,.74-2.14,1.79,1.79,0,0,0-1.92-1.08s.11-3.36-2.44-3.74C303.05,360.52,301.82,362.16,301.47,364.8Z" transform="translate(-52.07 -96)"/><path class="cls-21" d="M304.47,365.88s-.37,17.85-1.4,22.56a18.05,18.05,0,0,1-5.21,9h-.74v-4.89a18.6,18.6,0,0,0,4.79-9.68C302.75,378.22,304.47,365.88,304.47,365.88Z" transform="translate(-52.07 -96)"/><polygon class="cls-21" points="254.93 272.52 252.23 275.49 252.22 275.5 251.85 275.78 251.67 275.42 250.01 272.1 252.29 275.03 251.73 274.95 251.73 274.95 254.93 272.52"/><path class="cls-21" d="M307.64,372.32c-.28.3-.59.57-.89.85l-.94.79c-.64.51-1.3,1-2,1.46l-.29.2-.2-.27c-.24-.32-.48-.63-.71-1s-.46-.64-.67-1-.43-.66-.64-1-.41-.68-.59-1c.31.27.59.55.86.83s.55.57.81.87.52.59.77.89.49.61.74.92l-.49-.08c.66-.46,1.34-.92,2-1.34.35-.21.71-.41,1.07-.61S307.26,372.48,307.64,372.32Z" transform="translate(-52.07 -96)"/><path class="cls-21" d="M307.07,376.85c-.28.23-.58.44-.88.64s-.61.4-.92.58-.62.37-.93.54l-1,.51-.25.13-.19-.22c-.25-.29-.49-.58-.73-.88s-.48-.6-.7-.92-.45-.62-.66-.94-.42-.65-.61-1c.31.24.6.5.89.76s.56.53.82.81.53.55.79.83l.76.87-.44-.09,1-.47,1-.43c.33-.14.67-.26,1-.39S306.72,376.94,307.07,376.85Z" transform="translate(-52.07 -96)"/><path class="cls-21" d="M306.11,380.5c-.24.24-.48.46-.73.67l-.77.62-.79.58-.81.55-.26.17-.21-.23c-.44-.5-.86-1-1.25-1.56-.2-.27-.39-.54-.57-.82a9.59,9.59,0,0,1-.51-.88,8.08,8.08,0,0,1,.79.63c.26.22.5.45.74.68q.7.7,1.35,1.47l-.47-.07c.27-.17.55-.34.84-.5s.56-.33.85-.48.59-.3.88-.44A9.4,9.4,0,0,1,306.11,380.5Z" transform="translate(-52.07 -96)"/><path class="cls-23" d="M161.78,370.53c2.43,15.79,12.73,25.71,26.13,26.15,15.11.5,24.28-4,29.32-16C222.91,367.21,161.78,370.53,161.78,370.53Z" transform="translate(-52.07 -96)"/><path class="cls-24" d="M211.18,390.72c-1.43,1.18-4.52,1.17-6.36,1.29s-3.94-.84-5.89-.65c-3.06.29-6.06,3.29-8.76,1.53-1.89-1.23-2.24-4.11-3.93-5.65-2.4-2.19-4.17-.29-6.38-2.7-2.64-2.88-.3-6.6-2.57-9.82-1.29-1.85-3.92-3.18-3.63-6.78.13-1.53,2.13-3.73,2.61-5.14.62-1.83-.16-3,.09-5,.33-2.54,1.12-3.91,5.65-5.42,2.67-.89,3.52-1.11,4.18-4,.83-3.69,2.38-4,3.83-3.94,1.85.08,2.61.65,4.39.59,2.7-.09,3.57-3,6.38-2.27,3.05.79,3.38,3.25,5.92,4.79,1.42.86,3.13.66,4.65,1.35a11.43,11.43,0,0,1,4.85,4.13,24.63,24.63,0,0,1,4,11C221.81,374.73,218.29,384.88,211.18,390.72Z" transform="translate(-52.07 -96)"/><path class="cls-23" d="M182.61,340.46c-1.71.71-3.5,1.45-4.56,3s-1.33,3.8-2.5,5.37c-1.84,2.46-6,3.47-5.86,6.69.07,2.25,2.34,4.05,2.78,6.29.62,3.19-1.92,3.72-1,6.86,1.09,3.75,5.48,3.68,7.05,7.29.91,2.07.68,5,3.91,6.63,1.37.68,4.28.12,5.75.44,1.88.42,2.5,1.72,4.29,2.51,2.35,1,3.93,1.07,7.57-2,2.15-1.82,2.78-2.43,5.64-1.47,3.58,1.21,4.66.05,5.35-1.22.9-1.63.8-2.58,1.78-4.07,1.48-2.26,4.42-1.48,5.25-4.27.91-3-1-4.57-1-7.54,0-1.66,1.06-3,1.26-4.67a14.71,14.71,0,0,0-1.54-7.06,26,26,0,0,0-11.17-12C198.17,336.88,189.59,337.54,182.61,340.46Z" transform="translate(-52.07 -96)"/><path class="cls-20" d="M167,349.34a10.62,10.62,0,0,1,4.22-4.21c1.95-.89,4.26-.76,6.18-1.72,3-1.51,5.09-5.58,8.4-5,2.3.43,3.58,3,5.78,3.84,3.14,1.13,4.33-1.39,7.34,0,3.6,1.7,2.41,6.18,5.74,8.36,1.91,1.25,5,1.48,5.86,5,.36,1.51-1,4.41-1,6,0,2,1.14,2.83,1.5,4.79.48,2.57.11,4.19-4,7.44-2.42,1.92-3.21,2.47-2.94,5.55.34,3.86-1.13,4.78-2.62,5.3-1.91.66-2.86.42-4.65,1.18-2.71,1.16-2.65,4.3-5.74,4.72-3.34.46-4.46-1.76-7.53-2.22-1.72-.25-3.39.62-5.14.57a11.36,11.36,0,0,1-6.25-2,26.19,26.19,0,0,1-8.52-9.74C159.84,369.51,161.66,357.77,167,349.34Z" transform="translate(-52.07 -96)"/><path class="cls-25" d="M190.44,375.73c.65-2.2-.6-4.22-1.26-6.42-.72-2.4.49-5.52-1.37-7.2-1.26-1.14-3.29-.89-4.7-1.83-1.83-1.22-2.18-4.14-4.23-4.94s-4.16,1.15-6.12,2.29-3.93-.35-5.79.68c-2.47,1.36-4.24,4.32-5.27,7.14a23.24,23.24,0,0,0,1.94,11.8,26.19,26.19,0,0,0,8.52,9.74,11.28,11.28,0,0,0,6.21,2c.25-1.23.47-2.43,1.75-2.87,1.71-.59,3.9.06,5.17-1.23s.72-3.21,1.5-4.67C187.85,378.25,189.8,377.9,190.44,375.73Z" transform="translate(-52.07 -96)"/><path class="cls-21" d="M189.17,347.12c-.28.21-.56.43-.82.66s-.51.48-.77.72-.48.5-.71.76-.46.53-.67.8-.42.55-.61.84-.38.57-.56.86l-.5.9c-.16.3-.29.62-.44.92a9.9,9.9,0,0,0-.38.95c-.1.32-.24.63-.32,1l-.26,1c-.09.33-.12.67-.19,1a8.28,8.28,0,0,0-.13,1l-.07,1a6.82,6.82,0,0,0,0,1v1.43l-.32.28L179.21,365c-1.07,1-2.14,1.89-3.16,2.86l0-1.37c.33.33.74.7,1.13,1s.81.65,1.24,1,.85.61,1.29.89.89.55,1.35.81.92.5,1.39.72,1,.44,1.44.63a7.44,7.44,0,0,0,.74.28c.24.09.49.18.74.25.5.17,1,.3,1.51.44s1,.23,1.55.3,1,.13,1.57.19,1.05.08,1.58.07,1.06,0,1.59-.06l.8-.08a7.11,7.11,0,0,0,.79-.1l.79-.13.79-.17c.54-.1,1-.26,1.58-.4s1-.34,1.55-.5c-.47.27-.95.54-1.45.78s-1,.46-1.52.64l-.78.29-.8.23a7.4,7.4,0,0,1-.81.21l-.81.18c-.56.09-1.11.19-1.67.23s-1.12.07-1.68.09a15.92,15.92,0,0,1-1.69-.07c-.56,0-1.12-.13-1.68-.21s-1.11-.21-1.66-.36c-.27-.06-.54-.15-.82-.23s-.54-.16-.8-.26a22.55,22.55,0,0,1-3.12-1.34q-.75-.39-1.47-.84c-.48-.29-1-.6-1.41-.93s-.91-.67-1.35-1a17.45,17.45,0,0,1-1.29-1.18l-.69-.69.72-.67c1.07-1,2.16-2,3.26-2.88l1.66-1.39c.56-.45,1.11-.91,1.68-1.36l-.31.7,0-1.11a8.23,8.23,0,0,1,.07-1.1l.15-1.09a8.12,8.12,0,0,1,.23-1.09c.09-.35.16-.71.27-1.06l.37-1.05a8.13,8.13,0,0,1,.44-1,7.42,7.42,0,0,1,.5-1c.19-.32.36-.64.56-.94l.63-.89c.23-.29.47-.56.7-.84s.5-.52.75-.78.53-.49.79-.73l.85-.67A10.88,10.88,0,0,1,189.17,347.12Z" transform="translate(-52.07 -96)"/><path class="cls-21" d="M171.17,353.34c-.4.83-.76,1.67-1.08,2.53s-.61,1.72-.84,2.59c-.12.44-.24.88-.33,1.32s-.19.88-.26,1.32a19.67,19.67,0,0,0-.27,2.65,15.24,15.24,0,0,0,.12,2.62,13.33,13.33,0,0,0,.56,2.52,13,13,0,0,0,2.49,4.45l.45.52-.35.59L170.19,377l-.06-1.06c.19.25.46.56.72.84s.54.55.82.81a20.09,20.09,0,0,0,1.81,1.48,19.29,19.29,0,0,0,2,1.27c.34.2.69.39,1,.56s.7.35,1.07.5.73.29,1.1.43.74.27,1.12.38.77.22,1.15.31l1.17.26c.4.06.79.14,1.19.19l1.21.13c.4.05.81.05,1.21.08l1.23,0-1.21.23c-.41,0-.82.12-1.23.14l-.62.05-.63,0c-.41,0-.83,0-1.25,0s-.83-.05-1.25-.1-.83-.11-1.24-.19-.83-.17-1.24-.26-.81-.22-1.21-.36-.8-.28-1.2-.43-.78-.33-1.16-.51-.76-.39-1.13-.6-.74-.43-1.09-.67-.71-.48-1.05-.74-.67-.52-1-.8-.64-.58-.94-.89a11.27,11.27,0,0,1-.9-1l-.39-.49.33-.57,1.47-2.51.09,1.1a13.91,13.91,0,0,1-2.76-5.17,14.11,14.11,0,0,1-.49-2.88,15.47,15.47,0,0,1,.08-2.89,17.65,17.65,0,0,1,.54-2.81c.12-.45.26-.91.42-1.35s.31-.89.5-1.32a25.42,25.42,0,0,1,1.24-2.51A18.26,18.26,0,0,1,171.17,353.34Z" transform="translate(-52.07 -96)"/><path class="cls-21" d="M198.6,356.84c-24.58-1.28-33.39,23-33.42,23.08a26.26,26.26,0,0,0,3.34,4C173.66,358.94,198.6,356.84,198.6,356.84Z" transform="translate(-52.07 -96)"/><g id="layer1"><path id="path3847" class="cls-26" d="M428.69,212a9.48,9.48,0,0,0-1.41.13h0l-46.62,8.16a8.65,8.65,0,0,0-6.55,5.47v-.06l-21.72,56.82-211.17,5.39a8.56,8.56,0,0,0-6.28,3.06,9,9,0,0,0-2,6.84l11.66,98.76a8.77,8.77,0,0,0,7.89,7.76L303,416.59l29.84,24,.1.08.11.05a.39.39,0,0,0,.1.08c5.45,4.16,6.8,9.83,6,13a6.12,6.12,0,0,1-2.7,4.13c-1.59,1-4.34,1.75-9,1.62h0a.59.59,0,0,0-.47-.15s-.06,0-.08.15l-179.55.4h-.14a8.6,8.6,0,0,0,0,17.2h13.26a19.35,19.35,0,0,0-8.14,15.5,17.47,17.47,0,1,0,34.94,0c0-6.36-8.2-15.1-8.2-15.1L327,477.15a18,18,0,0,0-9,15.59,17.47,17.47,0,1,0,21.16-17.49c7.43-2.69,13.13-8.24,16.66-16.72a1.79,1.79,0,0,0,.13-.32c2.71-11.09-2.09-23.14-12-31l-.08-.08s0-.06-.05-.08a2.76,2.76,0,0,0-.29-.3l-21.14-17,65.93-173,41.83-7.29s0,0,0,0a8.9,8.9,0,0,0,7.23-9.47,8.8,8.8,0,0,0-8.73-8.08Zm-82.6,84.06L333.93,328H318.08v-31.2l28-.73Zm-34,.89v31H282.89V297.7l29.19-.75Zm-35.59.89V328h-29.2v-29.4Zm-35.2.91V328h-29.2V299.5Zm-35.2.91V328h-29.2V300.41Zm-35.6.89V328H149l-3.17-26.8,24.62-.64ZM149.8,334.39h20.69v28H153.1Zm27.09,0h29.2v28h-29.2Zm35.2,0h29.2v28h-29.2Zm35.2,0h29.2v28h-29.2v-28Zm35.6,0h29.19v28H282.89Zm35.19,0h13.5l-10.67,28h-2.83Zm-164.27,34h16.68v20.12L156,387.33Zm23.08,0h29.2v23L176.89,389Zm35.2,0h29.2v25.86l-29.2-2.36v-23.5Zm35.2,0h29.2v28.76l-29.2-2.39Zm35.6,0h29.19v17.06L306.54,400a6.18,6.18,0,0,0-2.3-.64l-21.35-1.75V368.39Zm35.19,0h.45l-.45,1.26ZM169.75,482.16a10.5,10.5,0,1,1-10.27,10.52A10.35,10.35,0,0,1,169.75,482.16Zm165.64,0a10.5,10.5,0,1,1-10.27,10.52A10.35,10.35,0,0,1,335.39,482.16Zm-165.64,5a5.7,5.7,0,1,0,5.58,5.71A5.62,5.62,0,0,0,169.75,487.15Zm165.64,0a5.7,5.7,0,1,0,5.58,5.71A5.62,5.62,0,0,0,335.39,487.15Z" transform="translate(-52.07 -96)"/></g><path d="M84.93,115.14c0,11.2-6.26,18.25-16.39,18.25s-16.47-7-16.47-18.25,6.38-18.23,16.47-18.23S84.93,103.92,84.93,115.14Zm-26.51,0c0,7.76,3.83,12.74,10.12,12.74s10-5,10-12.74-3.88-12.71-10-12.71S58.42,107.36,58.42,115.14Z" transform="translate(-52.07 -96)"/><path d="M91.41,106.18h5.76v4.1h.41c.72-2.6,3.56-4.53,7-4.53A10.14,10.14,0,0,1,107,106v5.53a14.1,14.1,0,0,0-3.05-.33c-3.88,0-6.58,2.41-6.58,6.09v15.22h-6Z" transform="translate(-52.07 -96)"/><path d="M110,119.33c0-8.33,4.19-13.58,10.84-13.58a8.55,8.55,0,0,1,8,4.62h.41V96h6v36.53h-5.78v-4.17H129a8.86,8.86,0,0,1-8.18,4.6C114.12,133,110,127.71,110,119.33Zm6.12,0c0,5.32,2.48,8.52,6.57,8.52s6.62-3.23,6.62-8.52-2.53-8.53-6.62-8.53S116.07,114.06,116.07,119.36Z" transform="translate(-52.07 -96)"/><path d="M165.52,125.28c-1.13,4.79-5.49,7.78-11.7,7.78-7.75,0-12.42-5.13-12.42-13.61s4.74-13.79,12.37-13.79,12,5,12,13.29v1.92h-18.4v.32c.15,4.38,2.68,7.12,6.6,7.12,3,0,5-1.08,5.88-3Zm-18.1-8.48h12.4c-.12-3.9-2.48-6.4-6.07-6.4S147.68,113,147.42,116.8Z" transform="translate(-52.07 -96)"/><path d="M171.78,106.18h5.76v4.1H178c.72-2.6,3.56-4.53,7-4.53a10.26,10.26,0,0,1,2.48.27v5.53a14.28,14.28,0,0,0-3.06-.33c-3.88,0-6.57,2.41-6.57,6.09v15.22h-6Z" transform="translate(-52.07 -96)"/><path d="M215.61,132.53,203.47,97.78h6.86l8.74,27.5h.41l8.67-27.5h6.62l-12,34.75Z" transform="translate(-52.07 -96)"/><path d="M260.25,125.28c-1.14,4.79-5.49,7.78-11.71,7.78-7.75,0-12.42-5.13-12.42-13.61s4.74-13.79,12.38-13.79,12,5,12,13.29v1.92H242.12v.32c.14,4.38,2.67,7.12,6.59,7.12,3,0,5-1.08,5.88-3Zm-18.11-8.48h12.4c-.12-3.9-2.48-6.4-6.07-6.4S242.4,113,242.14,116.8Z" transform="translate(-52.07 -96)"/><path d="M266.15,135h6c.39,1.81,2.5,3,5.78,3,4.09,0,6.48-1.92,6.48-5.22v-5H284c-1.52,2.82-4.39,4.36-8.05,4.36-6.64,0-10.78-5.15-10.78-13.07s4.16-13.32,10.88-13.32a8.92,8.92,0,0,1,8.16,4.65h.41v-4.22h5.76v26.44c0,6.09-4.87,9.92-12.55,9.92C271.06,142.54,266.63,139.56,266.15,135Zm18.34-16c0-5-2.53-8.24-6.67-8.24s-6.52,3.2-6.52,8.24,2.36,8.21,6.52,8.21S284.49,124.1,284.49,119.07Z" transform="translate(-52.07 -96)"/><path d="M320.51,125.28c-1.13,4.79-5.49,7.78-11.7,7.78-7.75,0-12.42-5.13-12.42-13.61s4.74-13.79,12.37-13.79,12,5,12,13.29v1.92h-18.4v.32c.15,4.38,2.68,7.12,6.6,7.12,3,0,5-1.08,5.87-3Zm-18.1-8.48h12.4c-.12-3.9-2.48-6.4-6.07-6.4S302.67,113,302.41,116.8Z" transform="translate(-52.07 -96)"/><path d="M334.62,99.73v6.62h5.64v4.77h-5.64v12.93c0,2.6,1.11,3.76,3.61,3.76a17.89,17.89,0,0,0,2-.12v4.67a16.85,16.85,0,0,1-3.13.29c-6.05,0-8.45-2.05-8.45-7.15V111.12h-4.17v-4.77h4.17V99.73Z" transform="translate(-52.07 -96)"/><path d="M344.76,125.06c0-4.77,3.59-7.51,10-7.9l6.79-.4v-2.22c0-2.58-1.73-4-5-4-2.74,0-4.62,1-5.17,2.74h-5.64c.48-4.64,4.84-7.6,11.1-7.6,6.77,0,10.57,3.29,10.57,8.88v18h-5.75v-3.62h-.41a8.68,8.68,0,0,1-7.8,4.05C348.4,133,344.76,129.88,344.76,125.06Zm16.78-2.19v-2.09l-6,.38c-3.34.22-4.91,1.42-4.91,3.56s1.9,3.54,4.55,3.54C358.85,128.26,361.54,125.93,361.54,122.87Z" transform="translate(-52.07 -96)"/><path d="M381,128.36h-.41v4.17h-5.75V96h6v14.37h.41a8.59,8.59,0,0,1,8-4.62c6.67,0,10.81,5.18,10.81,13.61S395.9,133,389.26,133A8.92,8.92,0,0,1,381,128.36Zm-.29-9c0,5.24,2.55,8.52,6.65,8.52s6.55-3.23,6.55-8.52-2.48-8.53-6.55-8.53S380.73,114.11,380.73,119.36Z" transform="translate(-52.07 -96)"/><path d="M406.3,96h6v36.53h-6Z" transform="translate(-52.07 -96)"/><path d="M442.64,125.28c-1.14,4.79-5.49,7.78-11.71,7.78-7.75,0-12.42-5.13-12.42-13.61s4.74-13.79,12.38-13.79,12,5,12,13.29v1.92H424.51v.32c.14,4.38,2.67,7.12,6.59,7.12,3,0,5-1.08,5.88-3Zm-18.11-8.48h12.4c-.12-3.9-2.48-6.4-6.07-6.4S424.79,113,424.53,116.8Z" transform="translate(-52.07 -96)"/><path d="M458.84,105.66c6.26,0,10.19,2.76,10.62,7.56h-5.61c-.43-1.86-2.19-3-5-3s-4.76,1.3-4.76,3.2c0,1.5,1.25,2.41,3.9,3l4.65,1.06c5,1.14,7.36,3.3,7.36,7.18,0,5.06-4.64,8.43-11.22,8.43s-10.71-2.85-11.17-7.64h5.9c.58,2,2.43,3.11,5.42,3.11s5.1-1.33,5.1-3.28c0-1.49-1.13-2.43-3.63-3l-4.68-1.08c-5.05-1.16-7.44-3.5-7.44-7.47C448.29,109,452.63,105.66,458.84,105.66Z" transform="translate(-52.07 -96)"/></g></svg>