<?xml version="1.0" encoding="UTF-8"?>
<svg width="793.7007874015748" height="1122.5196850393702" xmlns="http://www.w3.org/2000/svg" xmlns:svg="http://www.w3.org/2000/svg">
 <title>shopping cart logo</title>
 <metadata id="metadata7">image/svg+xmlshopping cartcartsupermarketshoppingshopping cartSergio Luiz Araujo Silva</metadata>
 <g>
  <title>Layer 1</title>
  <g stroke="null" id="layer1">
   <path d="m757.430773,6.550546c-1.175852,0.017172 -2.383058,0.123424 -3.537825,0.335285c-0.02098,0.004293 -0.043993,-0.004293 -0.064972,0l-116.583338,20.391841c-7.415287,1.302931 -13.631668,6.510149 -16.375091,13.683999a5.300565,5.428609 0 0 0 0,0.066971l-54.098944,142.071461l-527.964783,13.484373c-6.071786,0.154527 -11.77258,2.962162 -15.719102,7.645867c-3.948659,4.683705 -5.847506,10.910687 -5.109777,17.105514l29.145331,246.915127c1.203035,10.359098 9.55931,18.573791 19.715945,19.38515l376.405418,30.656472l74.60074,60.102269a5.300565,5.428609 0 0 0 0.261985,0.199604c0.079643,0.057977 0.180246,0.079464 0.261985,0.135273c0.09224,0.062227 0.169766,0.139523 0.261985,0.199604c13.614838,10.408404 16.989247,24.588289 15.065229,32.465958c-1.096166,4.49052 -2.770796,7.789662 -6.74668,10.331108c-3.975843,2.54151 -10.844042,4.381069 -22.595643,3.689914a5.300565,5.428609 0 0 0 -0.132082,0c-0.377237,-0.012901 -0.802701,-0.008586 -1.17996,0c-0.062855,0 -0.134115,-0.002168 -0.196992,0l-448.910319,1.341569l-0.064993,0c-11.79771,-0.077296 -21.725873,10.056398 -21.679764,22.134764c0.046109,12.080599 10.014116,22.175569 21.80973,22.001724c0.023076,0 0.044013,0 0.064972,0l32.815176,-0.066563c-12.19381,7.959279 -20.369839,21.883687 -20.369839,37.699191c0,24.594729 19.669857,44.739679 43.686506,44.739679c24.014617,0 43.684473,-20.14495 43.684473,-44.739679c0,-15.901322 -8.197009,-29.963149 -20.499804,-37.900942l369.660875,-1.073255c-13.317244,7.690965 -22.398714,22.289356 -22.398714,38.974197c0,24.594729 19.669857,44.739679 43.684473,44.739679c24.016671,0 43.686527,-20.14495 43.686527,-44.739679c0,-21.362042 -14.815777,-39.369133 -34.450025,-43.735133c18.563211,-6.727161 32.823601,-20.59576 41.65562,-41.790374a5.300565,5.428609 0 0 0 0.326978,-0.804941c6.769714,-27.726508 -5.237584,-57.867796 -29.998313,-77.476183a5.300565,5.428609 0 0 0 -0.197055,-0.20175c-0.060781,-0.047223 -0.07126,-0.152359 -0.129903,-0.199604a5.300565,5.428609 0 0 0 -0.718929,-0.738378l-52.856003,-42.460128l164.853639,-432.455361l104.596873,-18.245332c0.02098,-0.004293 0.046193,0.004293 0.064993,0c10.988784,-1.809293 19.024368,-12.297783 18.076967,-23.678792c-0.947254,-11.402688 -10.649146,-20.345906 -21.809751,-20.190499l0.00218,0zm-206.576285,210.625419l-30.390263,79.824357l-39.624712,0l0,-78.012724l70.014975,-1.811633zm-85.145134,2.215176l0,77.60918l-73.158795,0l0,-75.730984l73.158795,-1.878196zm-88.288955,2.21303l0,75.39615l-73.158795,0l0,-73.517954l73.158795,-1.878196zm-88.288955,2.279636l0,73.116514l-73.158795,0l0,-71.238318l73.158795,-1.878196zm-88.288955,2.281697l0,70.834817l-73.158795,0l0,-68.956622l73.158795,-1.878196zm-88.288955,2.213073l0,68.621745l-53.641938,0l-7.924544,-67.011862l61.566482,-1.609882zm-51.808042,84.048752l51.808042,0l0,70.098543l-43.554466,0l-8.253576,-70.098543zm66.938202,0l73.158795,0l0,70.098543l-73.158795,0l0,-70.098543zm88.288955,0l73.158795,0l0,70.098543l-73.158795,0l0,-70.098543zm88.288955,0l73.158795,0l0,70.098543l-73.158795,0l0,-70.098543zm88.288955,0l73.158795,0l0,70.098543l-73.158795,0l0,-70.098543zm88.288955,0l33.796069,0l-26.722473,70.098543l-7.073596,0l0,-70.098543zm-410.006548,85.525508l41.720571,0l0,50.309892l-36.153934,-2.951451l-5.566637,-47.358442zm56.85073,0l73.158795,0l0,57.485696l-73.158795,-5.969465l0,-51.516231zm88.288955,0l73.158795,0l0,64.663602l-73.158795,-5.902901l0,-58.760701zm88.288955,0l73.158795,0l0,71.908051l-73.158795,-5.969443l0,-65.938608zm88.288955,0l73.158795,0l0,42.661879l-13.885207,36.424143c-1.802415,-0.895137 -3.768393,-1.444601 -5.763671,-1.609882l-53.509918,-4.359583l0,-73.116557zm88.288955,0l1.112912,0l-1.112912,3.153201l0,-3.153201zm-370.643843,284.279441c14.275061,0 25.674533,11.674866 25.674533,26.294743c0,14.619898 -11.399472,26.226033 -25.674533,26.226033c-14.27504,0 -25.674533,-11.606135 -25.674533,-26.226033c0,-14.619877 11.399493,-26.294743 25.674533,-26.294743zm414.133358,0c14.27504,0 25.674533,11.674866 25.674533,26.294743c0,14.619898 -11.399493,26.226033 -25.674533,26.226033c-14.274998,0 -25.674533,-11.606135 -25.674533,-26.226033c0,-14.619877 11.399534,-26.294743 25.674533,-26.294743zm-414.133358,12.475492c-7.754715,0 -13.950179,6.345125 -13.950179,14.287168c0,7.944275 6.195464,14.220626 13.950179,14.220626c7.754799,0 13.9502,-6.276351 13.9502,-14.220626c0,-7.942043 -6.195401,-14.287168 -13.9502,-14.287168zm414.133358,0c-7.754715,0 -13.950137,6.345125 -13.950137,14.287168c0,7.944275 6.195422,14.220626 13.950137,14.220626c7.754778,0 13.950179,-6.276351 13.950179,-14.220626c0,-7.942043 -6.195401,-14.287168 -13.950179,-14.287168z" id="path3847" stroke-width="18.5" fill="#ff7f00"/>
  </g>
 </g>
</svg>